<svg width="754" height="357" viewBox="0 0 754 357" fill="none" xmlns="http://www.w3.org/2000/svg">
<path d="M133.426 15.5C132.126 17.1 132.226 17.2 133.826 15.9C134.726 15.2 135.526 14.4 135.526 14.2C135.526 13.4 134.726 13.9 133.426 15.5ZM133.526 86.2C133.526 86.4 134.326 87.2 135.326 87.9C136.826 89.2 136.926 89.1 135.626 87.5C134.326 85.9 133.526 85.4 133.526 86.2ZM111.726 194.3C111.726 195.9 111.926 196.5 112.226 195.5C112.426 194.6 112.426 193.2 112.226 192.5C111.926 191.9 111.726 192.6 111.726 194.3ZM111.726 231.8C111.726 233.7 111.926 234.5 112.226 233.5C112.426 232.6 112.426 231 112.226 230C111.926 229.1 111.726 229.9 111.726 231.8Z" fill="#BFBFBF" fill-opacity="0.1"/>
<path d="M167.325 0.5C167.925 0.7 169.125 0.7 169.825 0.5C170.425 0.2 169.925 0 168.525 0C167.125 0 166.625 0.2 167.325 0.5ZM135.725 50.8C135.725 52.7 135.925 53.5 136.225 52.5C136.425 51.6 136.425 50 136.225 49C135.925 48.1 135.725 48.9 135.725 50.8ZM131.326 189.5C133.126 189.7 135.826 189.7 137.326 189.5C138.826 189.3 137.325 189.1 134.025 189.1C130.725 189.1 129.526 189.3 131.326 189.5ZM112.425 335.5C111.125 337.1 111.226 337.2 112.826 335.9C113.726 335.2 114.525 334.4 114.525 334.2C114.525 333.4 113.725 333.9 112.425 335.5Z" fill="#BFBFBF" fill-opacity="0.6"/>
<path d="M98.7255 233.8C98.7255 235.2 98.9255 235.7 99.2255 235C99.4255 234.4 99.4255 233.2 99.2255 232.5C98.9255 231.9 98.7255 232.4 98.7255 233.8ZM108.425 317.5C107.125 319.1 107.226 319.2 108.826 317.9C109.726 317.2 110.525 316.4 110.525 316.2C110.525 315.4 109.725 315.9 108.425 317.5ZM95.0255 329.8C94.6255 330.4 94.0255 330.6 93.6255 330.4C93.2255 330.1 92.8255 330.5 92.8255 331.3C92.8255 332.6 93.2255 332.5 94.7255 331.1C96.5255 329.5 96.9255 328.8 96.1255 328.8C95.8255 328.8 95.3255 329.3 95.0255 329.8Z" fill="#BFBFBF" fill-opacity="0.2"/>
<path d="M119.826 173.5C120.726 173.7 122.126 173.7 122.826 173.5C123.426 173.2 122.725 173 121.025 173C119.425 173 118.826 173.2 119.826 173.5ZM146.326 173.5C146.926 173.7 148.126 173.7 148.826 173.5C149.426 173.2 148.925 173 147.525 173C146.125 173 145.626 173.2 146.326 173.5ZM18.4255 184.5C17.1255 186.1 17.2255 186.2 18.8255 184.9C20.4255 183.6 20.9255 182.8 20.1255 182.8C19.9255 182.8 19.1255 183.6 18.4255 184.5ZM140.326 189.5C141.026 189.8 141.925 189.7 142.225 189.4C142.625 189.1 142.025 188.8 140.925 188.9C139.825 188.9 139.526 189.2 140.326 189.5ZM111.725 203.8C111.725 205.2 111.925 205.7 112.225 205C112.425 204.4 112.425 203.2 112.225 202.5C111.925 201.9 111.725 202.4 111.725 203.8ZM99.8255 211.8C99.8255 216.5 100.025 218.4 100.225 216C100.425 213.7 100.425 209.9 100.225 207.5C100.025 205.2 99.8255 207.1 99.8255 211.8ZM111.725 220.3C111.725 221.9 111.925 222.5 112.225 221.5C112.425 220.6 112.425 219.2 112.225 218.5C111.925 217.9 111.725 218.6 111.725 220.3Z" fill="#BFBFBF" fill-opacity="0.7"/>
<path d="M133.925 16L131.025 19.3L134.325 16.4C137.325 13.6 138.025 12.8 137.225 12.8C137.025 12.8 135.625 14.3 133.925 16ZM175.425 14.5C174.125 16.1 174.225 16.2 175.825 14.9C176.725 14.2 177.525 13.4 177.525 13.2C177.525 12.4 176.725 12.9 175.425 14.5ZM120.625 41.4C120.625 42.5 120.925 42.8 121.225 42C121.525 41.3 121.425 40.4 121.125 40.1C120.825 39.7 120.525 40.3 120.625 41.4ZM135.725 44.8C135.725 46.2 135.925 46.7 136.225 46C136.425 45.4 136.425 44.2 136.225 43.5C135.925 42.9 135.725 43.4 135.725 44.8ZM135.725 56.8C135.725 58.2 135.925 58.7 136.225 58C136.425 57.4 136.425 56.2 136.225 55.5C135.925 54.9 135.725 55.4 135.725 56.8ZM120.725 59.8C120.725 61.2 120.925 61.7 121.225 61C121.425 60.4 121.425 59.2 121.225 58.5C120.925 57.9 120.725 58.4 120.725 59.8ZM146.525 76.2C146.525 76.4 147.325 77.2 148.325 77.9C149.825 79.2 149.925 79.1 148.625 77.5C147.325 75.9 146.525 75.4 146.525 76.2ZM131.525 83.1C131.525 83.3 133.025 84.7 134.825 86.4L138.025 89.3L135.125 86C132.325 83 131.525 82.3 131.525 83.1ZM168.325 85.5C168.925 85.7 170.125 85.7 170.825 85.5C171.425 85.2 170.925 85 169.525 85C168.125 85 167.625 85.2 168.325 85.5ZM176.625 88.5C177.325 89.7 178.125 90.5 178.425 90.2C178.725 90 178.125 89 177.125 88C175.425 86.4 175.325 86.4 176.625 88.5ZM215.325 101.5C215.925 101.7 217.125 101.7 217.825 101.5C218.425 101.2 217.925 101 216.525 101C215.125 101 214.625 101.2 215.325 101.5ZM206.325 102.5C207.025 102.8 207.925 102.7 208.225 102.4C208.625 102.1 208.025 101.8 206.925 101.9C205.825 101.9 205.525 102.2 206.325 102.5ZM197.325 103.5C198.025 103.8 198.925 103.7 199.225 103.4C199.625 103.1 199.025 102.8 197.925 102.9C196.825 102.9 196.525 103.2 197.325 103.5ZM225.725 107.8C225.725 109.2 225.925 109.7 226.225 109C226.425 108.4 226.425 107.2 226.225 106.5C225.925 105.9 225.725 106.4 225.725 107.8ZM215.325 116.5C216.025 116.8 216.925 116.7 217.225 116.4C217.625 116.1 217.025 115.8 215.925 115.9C214.825 115.9 214.525 116.2 215.325 116.5ZM206.325 117.5C207.025 117.8 207.925 117.7 208.225 117.4C208.625 117.1 208.025 116.8 206.925 116.9C205.825 116.9 205.525 117.2 206.325 117.5ZM199.325 118.5C200.025 118.8 200.925 118.7 201.225 118.4C201.625 118.1 201.025 117.8 199.925 117.9C198.825 117.9 198.525 118.2 199.325 118.5ZM191.325 119.5C192.025 119.8 192.925 119.7 193.225 119.4C193.625 119.1 193.025 118.8 191.925 118.9C190.825 118.9 190.525 119.2 191.325 119.5ZM222.725 127.8C222.725 129.2 222.925 129.7 223.225 129C223.425 128.4 223.425 127.2 223.225 126.5C222.925 125.9 222.725 126.4 222.725 127.8ZM207.625 131.4C207.625 132.5 207.925 132.8 208.225 132C208.525 131.3 208.425 130.4 208.125 130.1C207.825 129.7 207.525 130.3 207.625 131.4ZM217.625 156.4C217.625 157.5 217.925 157.8 218.225 157C218.525 156.3 218.425 155.4 218.125 155.1C217.825 154.7 217.525 155.3 217.625 156.4ZM202.625 157.4C202.625 158.5 202.925 158.8 203.225 158C203.525 157.3 203.425 156.4 203.125 156.1C202.825 155.7 202.525 156.3 202.625 157.4ZM36.4255 169.5C35.1255 171.1 35.2255 171.2 36.8255 169.9C38.4255 168.6 38.9255 167.8 38.1255 167.8C37.9255 167.8 37.1255 168.6 36.4255 169.5ZM31.4255 173.5C30.1255 175.1 30.2255 175.2 31.8255 173.9C32.7255 173.2 33.5255 172.4 33.5255 172.2C33.5255 171.4 32.7255 171.9 31.4255 173.5ZM130.325 173.5C132.625 173.7 136.425 173.7 138.825 173.5C141.125 173.3 139.225 173.1 134.525 173.1C129.825 173.1 127.925 173.3 130.325 173.5ZM110.325 174.5C111.025 174.8 111.925 174.7 112.225 174.4C112.625 174.1 112.025 173.8 110.925 173.9C109.825 173.9 109.525 174.2 110.325 174.5ZM156.325 174.5C156.925 174.7 158.125 174.7 158.825 174.5C159.425 174.2 158.925 174 157.525 174C156.125 174 155.625 174.2 156.325 174.5ZM102.325 175.5C103.025 175.8 103.925 175.7 104.225 175.4C104.625 175.1 104.025 174.8 102.925 174.9C101.825 174.9 101.525 175.2 102.325 175.5ZM94.3255 176.5C95.0255 176.8 95.9255 176.7 96.2255 176.4C96.6255 176.1 96.0255 175.8 94.9255 175.9C93.8255 175.9 93.5255 176.2 94.3255 176.5ZM23.4255 180.5L21.0255 183.3L23.8255 180.9C26.3255 178.6 27.0255 177.8 26.2255 177.8C26.0255 177.8 24.8255 179 23.4255 180.5ZM40.4255 185.5C39.1255 187.1 39.2255 187.2 40.8255 185.9C41.7255 185.2 42.5255 184.4 42.5255 184.2C42.5255 183.4 41.7255 183.9 40.4255 185.5ZM14.4255 188.5C13.1255 190.1 13.2255 190.2 14.8255 188.9C16.4255 187.6 16.9255 186.8 16.1255 186.8C15.9255 186.8 15.1255 187.6 14.4255 188.5ZM118.825 189.5C119.725 189.7 121.325 189.7 122.325 189.5C123.225 189.2 122.425 189 120.525 189C118.625 189 117.825 189.2 118.825 189.5ZM145.825 189.5C146.725 189.7 148.325 189.7 149.325 189.5C150.225 189.2 149.425 189 147.525 189C145.625 189 144.825 189.2 145.825 189.5ZM110.625 191.4C110.625 192.5 110.925 192.8 111.225 192C111.525 191.3 111.425 190.4 111.125 190.1C110.825 189.7 110.525 190.3 110.625 191.4ZM159.325 190.5C160.025 190.8 160.925 190.7 161.225 190.4C161.625 190.1 161.025 189.8 159.925 189.9C158.825 189.9 158.525 190.2 159.325 190.5ZM10.4255 192.5C9.12548 194.1 9.22549 194.2 10.8255 192.9C12.4255 191.6 12.9255 190.8 12.1255 190.8C11.9255 190.8 11.1255 191.6 10.4255 192.5ZM99.8255 195.8C99.8255 198.8 100.025 200.1 100.225 198.5C100.425 197 100.425 194.6 100.225 193C100.025 191.5 99.8255 192.8 99.8255 195.8ZM166.325 191.5C167.025 191.8 167.925 191.7 168.225 191.4C168.625 191.1 168.025 190.8 166.925 190.9C165.825 190.9 165.525 191.2 166.325 191.5ZM173.325 192.5C174.025 192.8 174.925 192.7 175.225 192.4C175.625 192.1 175.025 191.8 173.925 191.9C172.825 191.9 172.525 192.2 173.325 192.5ZM7.32549 216.5C7.92549 216.7 9.12549 216.7 9.82549 216.5C10.4255 216.2 9.92548 216 8.52548 216C7.12548 216 6.62549 216.2 7.32549 216.5ZM99.8255 229.8C99.8255 233.9 100.025 235.6 100.225 233.5C100.425 231.5 100.425 228.1 100.225 226C100.025 224 99.8255 225.7 99.8255 229.8ZM110.725 235.8C110.725 237.7 110.925 238.5 111.225 237.5C111.425 236.6 111.425 235 111.225 234C110.925 233.1 110.725 233.9 110.725 235.8ZM190.025 234.9C189.625 235.5 189.525 236.1 189.825 236.4C190.025 236.7 190.525 236.2 190.825 235.3C191.525 233.6 190.925 233.3 190.025 234.9ZM97.7255 255.8C97.7255 257.2 97.9255 257.7 98.2255 257C98.4255 256.4 98.4255 255.2 98.2255 254.5C97.9255 253.9 97.7255 254.4 97.7255 255.8ZM159.425 258.5C158.125 260.1 158.225 260.2 159.825 258.9C160.725 258.2 161.525 257.4 161.525 257.2C161.525 256.4 160.725 256.9 159.425 258.5ZM176.425 259.5C175.125 261.1 175.225 261.2 176.825 259.9C177.725 259.2 178.525 258.4 178.525 258.2C178.525 257.4 177.725 257.9 176.425 259.5ZM96.6255 262.4C96.6255 263.5 96.9255 263.8 97.2255 263C97.5255 262.3 97.4255 261.4 97.1255 261.1C96.8255 260.7 96.5255 261.3 96.6255 262.4ZM107.725 263.3C107.725 264.9 107.925 265.5 108.225 264.5C108.425 263.6 108.425 262.2 108.225 261.5C107.925 260.9 107.725 261.6 107.725 263.3ZM105.725 276.8C105.725 278.2 105.925 278.7 106.225 278C106.425 277.4 106.425 276.2 106.225 275.5C105.925 274.9 105.725 275.4 105.725 276.8ZM137.925 287L136.025 289.3L138.325 287.4C140.425 285.6 141.025 284.8 140.225 284.8C140.025 284.8 139.025 285.8 137.925 287ZM114.525 312.5L106.025 321.3L114.825 312.8C122.925 304.9 124.025 303.8 123.225 303.8C123.125 303.8 119.125 307.7 114.525 312.5ZM125.025 323L119.025 329.3L125.325 323.3C131.125 317.8 132.025 316.8 131.225 316.8C131.125 316.8 128.325 319.6 125.025 323ZM85.6255 319.4C85.6255 320.5 85.9255 320.8 86.2255 320C86.5255 319.3 86.4255 318.4 86.1255 318.1C85.8255 317.7 85.5255 318.3 85.6255 319.4ZM94.4255 331.5L92.0255 334.3L94.8255 331.9C97.3255 329.6 98.0255 328.8 97.2255 328.8C97.0255 328.8 95.8255 330 94.4255 331.5ZM107.925 339L106.025 341.3L108.325 339.4C110.425 337.6 111.025 336.8 110.225 336.8C110.025 336.8 109.025 337.8 107.925 339Z" fill="#BFBFBF" fill-opacity="0.9"/>
<path d="M219.226 144.7C218.826 146.4 218.926 146.8 219.726 146C220.226 145.5 220.526 144.4 220.326 143.7C220.026 142.9 219.626 143.4 219.226 144.7ZM76.6255 352.4C76.6255 353.5 76.9255 353.8 77.2255 353C77.5255 352.3 77.4255 351.4 77.1255 351.1C76.8255 350.7 76.5255 351.3 76.6255 352.4Z" fill="#BFBFBF"/>
<path d="M159.126 2.39998C142.326 6.49998 128.125 19.2 122.925 34.8C118.925 46.7 118.925 52.8 122.825 66.3C128.025 84.4 149.525 100.8 168.025 100.8C174.925 100.8 177.925 98.5 177.925 93.4C177.925 88.2 175.825 86.7 166.325 85.1C161.625 84.3 155.926 82.5 153.126 81C147.626 78 141.526 71.5 139.126 66C138.126 64 137.025 61.5 136.525 60.6C135.925 59.6 135.525 55.5 135.525 51.4C135.525 45.4 136.025 42.8 138.425 37.5C143.825 25.5 153.526 18.4 166.626 16.7C170.626 16.2 174.426 15.3 175.226 14.6C179.226 11.3 178.825 4.99999 174.525 2.49999C171.225 0.499987 167.126 0.499981 159.126 2.39998ZM202.525 102.9C129.925 111.1 64.4255 141.3 14.6255 189.5C-0.774508 204.4 -2.57451 208 2.62549 213.6C5.62549 216.9 10.3255 216.4 24.9255 210.9C47.3255 202.4 79.4255 193.6 95.8255 191.3L100.525 190.7V212.5C100.525 234.1 100.025 240.9 96.9255 264.3C93.8255 288.1 87.3255 317.8 80.5255 339.1C78.7255 344.8 77.5255 350.5 77.7255 352.6C78.0255 355.9 78.3255 356.3 81.2255 356.6C84.9255 357 89.5255 354.3 100.525 345.4C111.225 336.8 136.025 312.1 146.525 299.8C170.125 272 183.325 251.1 198.525 217.3C202.525 208.6 210.025 186.8 213.025 175.8C215.925 165 219.425 148.8 219.325 146.8C219.225 146 219.925 142.8 220.825 139.8C221.725 136.8 222.425 132.7 222.425 130.8C222.425 128.9 222.825 125.4 223.325 123.1C224.125 119.2 224.125 119 222.425 119.9C221.425 120.4 218.225 121.3 215.425 121.8C212.525 122.4 210.026 123 209.726 123.2C209.526 123.5 208.925 126.5 208.525 130C207.025 140.9 198.426 179.1 197.126 180.6C196.926 180.7 192.625 179.9 187.425 178.9C155.525 172.3 118.225 172.1 83.5255 178.4C74.0255 180.1 56.0255 184.7 44.1255 188.4C33.3255 191.8 33.1255 191.2 42.5255 183.8C88.1255 147.8 142.225 125.5 202.525 117.8C221.025 115.4 224.125 114.6 224.925 111.5C227.425 102.1 223.425 100.5 202.525 102.9ZM168.025 191.1C180.625 193.2 189.025 194.9 190.325 195.7C193.825 197.9 171.826 242.2 156.126 264.3C144.626 280.6 130.925 296.5 112.325 315C101.425 325.9 92.0255 334.8 91.5255 334.8C91.0255 334.8 91.1255 333.4 91.6255 331.5C92.2255 329.8 93.6255 325.4 94.7255 321.8C106.025 285.5 112.125 243.7 111.425 207L111.025 189.9L114.025 189.4C120.225 188.5 159.325 189.7 168.025 191.1ZM325.825 115.8C299.225 118.6 279.225 135.1 273.025 159.3C271.025 167 271.025 183.6 273.025 191.3C276.925 206.4 288.025 220.7 301.225 227.6C314.525 234.6 336.725 237.2 351.025 233.4C359.025 231.2 369.925 225.8 375.625 221.1L380.225 217.2L372.525 208.9L364.825 200.6L360.525 203.7C353.425 208.8 344.225 211.1 332.725 210.6C320.525 210.1 314.525 207.6 307.725 200.4C300.925 193.2 299.025 187.7 299.025 175.3C299.025 162.9 300.925 157.4 307.725 150.2C314.525 143 320.525 140.5 332.725 140C343.825 139.5 349.625 141 357.425 146.3L362.225 149.6L370.425 141.4L378.725 133.1L372.325 128.3C358.825 118.1 343.625 114 325.825 115.8ZM396.525 175.3V234.8H423.525V194.7L432.225 195L441.025 195.3L456.025 215L471.025 234.7H486.926C499.426 234.8 502.525 234.5 501.825 233.5C501.325 232.9 494.225 224 486.025 213.8C477.925 203.6 470.825 194.8 470.325 194.1C469.725 193.3 471.126 192.2 474.926 190.5C482.726 186.9 489.625 180 493.125 172.5C495.725 166.9 496.025 165.3 496.025 155.8C496.025 146.1 495.825 144.8 492.825 138.6C487.125 126.4 475.925 118.7 461.525 116.8C457.425 116.3 441.125 115.8 425.325 115.8H396.525V175.3ZM461.426 141.6C468.026 144.9 470.925 151.9 469.325 160.7C468.825 163.2 467.525 166.3 466.225 167.6C462.125 172.1 458.825 172.8 440.525 172.8H423.525V139.8H440.825C455.225 139.8 458.626 140.1 461.426 141.6Z" fill="white"/>
<path d="M166.325 101.5C167.525 101.7 169.325 101.7 170.325 101.5C171.225 101.2 170.225 101 168.025 101.1C165.825 101.1 165.025 101.3 166.325 101.5ZM124.326 173.5C125.026 173.8 125.925 173.7 126.225 173.4C126.625 173.1 126.025 172.8 124.925 172.9C123.825 172.9 123.526 173.2 124.326 173.5ZM143.326 173.5C144.026 173.8 144.925 173.7 145.225 173.4C145.625 173.1 145.025 172.8 143.925 172.9C142.825 172.9 142.526 173.2 143.326 173.5ZM124.326 189.5C125.026 189.8 125.925 189.7 126.225 189.4C126.625 189.1 126.025 188.8 124.925 188.9C123.825 188.9 123.526 189.2 124.326 189.5ZM99.6255 202.4C99.6255 203.5 99.9255 203.8 100.225 203C100.525 202.3 100.426 201.4 100.126 201.1C99.8255 200.7 99.5255 201.3 99.6255 202.4ZM111.826 211.8C111.826 215.4 112.025 216.8 112.225 215C112.425 213.3 112.425 210.3 112.225 208.5C112.025 206.8 111.826 208.2 111.826 211.8ZM99.6255 221.4C99.6255 222.5 99.9255 222.8 100.225 222C100.525 221.3 100.426 220.4 100.126 220.1C99.8255 219.7 99.5255 220.3 99.6255 221.4ZM110.626 240.4C110.626 241.5 110.925 241.8 111.225 241C111.525 240.3 111.426 239.4 111.126 239.1C110.826 238.7 110.526 239.3 110.626 240.4ZM98.4255 327.5C97.1255 329.1 97.2255 329.2 98.8255 327.9C99.7255 327.2 100.525 326.4 100.525 326.2C100.525 325.4 99.7255 325.9 98.4255 327.5Z" fill="#BFBFBF" fill-opacity="0.8"/>
<path d="M223.626 41.4C223.626 42.5 223.926 42.8 224.226 42C224.526 41.3 224.426 40.4 224.126 40.1C223.826 39.7 223.526 40.3 223.626 41.4Z" fill="#0080BF" fill-opacity="0.2"/>
<path d="M223.626 44.4C223.626 45.5 223.926 45.8 224.226 45C224.526 44.3 224.426 43.4 224.126 43.1C223.826 42.7 223.526 43.3 223.626 44.4Z" fill="#0080BF" fill-opacity="0.4"/>
<path d="M546.926 153.8C546.926 161.8 547.126 165 547.226 161C547.426 157.1 547.426 150.5 547.226 146.5C547.126 142.6 546.926 145.8 546.926 153.8ZM709.526 148.2C709.526 148.4 710.326 149.2 711.326 149.9C712.826 151.2 712.925 151.1 711.625 149.5C710.325 147.9 709.526 147.4 709.526 148.2ZM620.726 172.8C620.726 174.2 620.926 174.7 621.226 174C621.426 173.4 621.426 172.2 621.226 171.5C620.926 170.9 620.726 171.4 620.726 172.8ZM620.726 177.8C620.726 179.2 620.926 179.7 621.226 179C621.426 178.4 621.426 177.2 621.226 176.5C620.926 175.9 620.726 176.4 620.726 177.8ZM546.926 213.3C546.926 225.4 547.126 230.2 547.226 224C547.426 217.8 547.426 207.9 547.226 202C547.126 196.1 546.926 201.2 546.926 213.3ZM710.426 201.5C709.126 203.1 709.226 203.2 710.826 201.9C712.426 200.6 712.925 199.8 712.125 199.8C711.925 199.8 711.126 200.6 710.426 201.5ZM740.526 237.3C736.426 241.4 733.325 244.8 733.625 244.8C733.825 244.8 737.426 241.4 741.526 237.3C745.626 233.2 748.726 229.8 748.426 229.8C748.226 229.8 744.626 233.2 740.526 237.3Z" fill="#00BFBF" fill-opacity="0.8"/>
<path d="M195.026 8.00001C190.726 11.8 190.926 15.9 195.826 21.7C198.626 25 200.326 26.3 201.126 25.7C201.926 25.1 202.126 25.5 201.826 27.2C201.426 29.1 201.926 29.9 204.126 30.9C205.726 31.7 207.026 33.3 207.226 34.7C207.526 36.7 207.326 36.9 206.026 35.8C204.826 34.8 204.726 34.3 205.626 33.8C206.326 33.3 206.426 32.8 205.726 32.4C205.126 32.1 204.426 32.2 204.126 32.7C203.326 33.9 204.426 36.8 205.626 36.8C206.126 36.8 206.426 37.6 206.326 38.5C206.026 43 206.626 46.8 208.126 48.2C208.926 49.1 209.326 49.8 208.826 49.8C206.626 49.9 213.126 53.8 215.426 53.8C219.126 53.8 219.826 52.8 217.826 50.6C215.926 48.4 217.026 48.2 219.226 50.3C220.926 52.1 222.726 51.4 221.926 49.3C221.526 48.5 220.826 48.1 220.126 48.5C219.526 48.9 219.626 48.4 220.426 47.5C221.926 45.7 223.026 45.2 222.026 46.8C221.726 47.3 221.926 47.8 222.426 47.8C223.826 47.8 223.826 40.1 222.526 39.3C221.926 38.9 221.826 38.2 222.126 37.6C222.526 37 222.126 37 220.826 37.7C218.826 38.7 217.526 38.3 217.526 36.7C217.526 36.2 218.126 36.1 218.826 36.4C220.826 37.1 222.626 34.6 221.326 32.8C220.526 31.6 220.426 31.6 220.926 33.1C221.426 34.7 221.326 34.7 219.026 33.2C216.726 31.7 215.326 28.9 217.426 30.3C217.926 30.6 218.726 30.3 219.126 29.7C219.526 29 219.426 28.8 218.826 29.1C218.226 29.5 217.026 28.9 216.026 27.8C213.626 25.2 212.526 26.1 213.526 29.9C214.226 32.3 214.126 32.8 213.126 31.9C212.226 31.2 211.526 31.2 210.726 32C209.026 33.7 209.226 35.3 210.926 33.9C212.126 32.9 212.626 33.1 213.426 34.6C214.026 35.7 214.126 36.9 213.726 37.3C213.326 37.8 213.926 37.8 215.026 37.4C216.626 36.8 216.826 36.9 215.826 37.9C213.926 39.8 214.226 41 216.526 40.3C217.726 39.9 218.526 40.1 218.526 40.8C218.526 41.6 217.526 41.8 216.026 41.6C214.126 41.2 213.526 41.5 213.526 42.8C213.526 43.8 212.726 45.2 211.826 45.9C210.726 46.9 210.426 46.9 210.926 46C211.326 45.4 211.126 44.8 210.626 44.8C210.026 44.8 209.526 45.5 209.526 46.4C209.526 47.2 209.126 47.6 208.526 47.3C208.026 47 207.526 45.8 207.526 44.7C207.526 43.2 208.026 42.9 210.026 43.2C211.826 43.5 212.526 43.2 212.526 42.2C212.526 41.4 212.026 41 211.526 41.3C210.226 42.1 206.526 41 206.526 39.8C206.526 39.4 208.126 39.4 210.026 39.8C212.026 40.2 213.526 40.2 213.526 39.7C213.526 38.8 212.526 38.5 209.326 38.5C208.226 38.5 207.726 37.8 207.926 36.2C208.126 34.9 208.426 33.6 208.726 33.3C209.026 33 207.926 31.3 206.426 29.7C203.126 26.2 202.826 24.8 205.126 24.8C206.526 24.8 206.526 24.5 205.526 23.3C204.826 22.4 204.526 21.5 204.826 21.1C205.226 20.8 205.026 19.7 204.426 18.7C203.626 17.2 203.826 16.6 205.026 16.1C207.026 15.4 209.926 18.1 209.226 20C208.926 20.8 208.426 20.5 207.826 18.9C207.226 17.4 206.626 16.9 206.126 17.6C205.826 18.2 205.926 18.9 206.526 19.3C207.026 19.6 207.526 20.4 207.526 20.9C207.526 21.5 206.926 21.6 206.326 21.2C205.426 20.6 205.426 20.9 206.326 22.1C207.126 23 207.426 24.1 207.126 24.6C206.826 25.1 207.726 25.4 209.026 25.2C210.426 25.1 211.526 25.4 211.526 26C211.526 26.6 212.226 26.5 213.126 25.7C214.426 24.7 214.826 24.7 215.526 25.7C215.926 26.5 216.826 26.7 217.426 26.4C218.026 26 218.526 26.2 218.526 26.9C218.526 27.6 218.826 27.9 219.126 27.5C219.426 27.2 219.226 26.1 218.626 25.1C217.826 23.7 217.626 23.7 217.526 24.8C217.526 26.1 217.426 26.1 216.526 24.8C215.226 22.8 215.326 21.5 216.726 22.4C217.426 22.8 217.526 22.7 217.126 21.9C216.726 21.3 215.926 21.1 215.326 21.4C214.626 21.9 214.426 21.5 214.826 20.5C215.426 18.9 211.126 12.6 207.226 9.59998C205.626 8.39998 204.726 8.20001 203.726 9.00001C203.026 9.60001 202.126 9.8 201.826 9.4C201.426 9 201.626 8.3 202.426 7.9C203.426 7.3 203.326 6.9 202.026 6.4C199.226 5.4 197.726 5.70001 195.026 8.00001ZM196.626 10.5C197.626 11.7 197.726 12 196.726 11.4C196.026 11 194.726 11.2 193.826 12C192.326 13.2 192.326 13.1 193.626 11C195.326 8.40001 194.926 8.40001 196.626 10.5ZM200.526 9.8C200.526 10.3 200.126 10.8 199.526 10.8C199.026 10.8 198.526 10.3 198.526 9.8C198.526 9.2 199.026 8.8 199.526 8.8C200.126 8.8 200.526 9.2 200.526 9.8ZM208.826 13.1C208.526 13.6 207.726 13.1 207.026 12.1C205.726 10.4 205.526 10.4 203.126 12.7C201.726 14.1 200.226 14.8 199.826 14.3C199.326 13.9 199.626 13.3 200.426 13C201.126 12.8 202.526 11.8 203.426 10.9C204.926 9.3 205.226 9.29999 207.126 10.7C208.326 11.6 209.126 12.7 208.826 13.1ZM196.826 18.5C196.526 19.2 195.826 19.8 195.226 19.8C194.426 19.8 194.426 19.5 195.226 18.7C195.826 18.1 196.126 16.8 195.826 15.9C195.426 14.6 195.526 14.6 196.326 15.7C196.926 16.5 197.126 17.7 196.826 18.5ZM201.626 16.7C200.926 17.2 200.626 18.1 200.926 18.7C201.326 19.3 202.026 19.6 202.526 19.3C202.926 19 203.126 19.7 202.826 20.8C202.526 21.9 201.926 23.1 201.526 23.3C200.426 24 197.526 22.8 197.526 21.6C197.526 21.1 197.926 21 198.526 21.3C199.126 21.7 199.326 20.7 199.126 19.1C198.926 16.8 199.226 16.2 200.926 16C202.426 15.9 202.626 16.1 201.626 16.7ZM212.526 16.7C212.526 17.3 212.126 18 211.526 18.3C211.026 18.6 210.526 18.2 210.526 17.4C210.526 16.5 211.026 15.8 211.526 15.8C212.126 15.8 212.526 16.2 212.526 16.7ZM210.826 22.9C210.226 23.5 209.126 23.7 208.426 23.2C207.526 22.7 207.626 22.3 209.126 21.8C211.426 20.9 212.226 21.5 210.826 22.9ZM221.226 42.3C220.526 43.7 219.726 44.8 219.326 44.8C218.826 44.8 218.526 45.5 218.526 46.5C218.526 48.8 217.226 47.2 217.026 44.7C216.926 43.4 217.326 42.9 218.226 43.2C218.926 43.5 219.526 43.1 219.526 42.4C219.526 41.6 220.126 40.7 220.826 40.5C221.426 40.2 222.126 39.9 222.226 39.9C222.226 39.8 221.826 40.9 221.226 42.3ZM211.526 49.8C211.526 50.3 211.026 50.8 210.426 50.8C209.926 50.8 209.726 50.3 210.026 49.8C210.326 49.2 210.826 48.8 211.126 48.8C211.326 48.8 211.526 49.2 211.526 49.8ZM215.626 50.5C216.926 52.1 216.826 52.2 215.326 50.9C213.926 49.8 213.526 49.8 213.526 50.8C213.526 51.6 213.226 51.9 212.926 51.5C212.426 51 213.226 48.8 213.926 48.8C214.126 48.8 214.926 49.6 215.626 50.5Z" fill="#00BFBF"/>
<path d="M206.126 28.3C206.926 29.6 208.226 30.9 209.026 31.2C210.626 31.8 212.926 29.3 212.026 27.8C211.226 26.5 209.526 26.5 209.526 27.9C209.526 28.4 210.126 28.6 210.826 28.2C211.426 27.8 211.626 27.9 211.226 28.3C209.726 30 207.426 29.7 208.026 27.9C208.326 26.7 207.926 26.2 206.526 26.1C204.726 25.9 204.626 26.1 206.126 28.3ZM210.526 35.3C209.026 37.2 209.426 37.8 211.726 36.9C212.826 36.5 213.126 35.8 212.626 35C212.026 34 211.626 34 210.526 35.3ZM675.926 115.9C653.626 118.1 636.026 129.5 627.626 147.1C622.826 157.2 621.526 163.2 621.526 175.3C621.526 187.4 622.826 193.4 627.626 203.5C634.626 218.1 647.626 228.3 665.226 232.9C679.826 236.7 700.826 235.3 713.426 229.7L717.926 227.7L726.026 235.8L734.026 243.8L743.326 234.5L752.526 225.3L745.126 217.9L737.726 210.6L741.526 203.3C743.526 199.2 745.826 193.1 746.626 189.6C748.326 181.8 748.326 167.1 746.626 159.8C739.526 129.7 711.526 112.3 675.926 115.9ZM703.326 143.8C715.526 150.3 720.826 159.9 720.826 175.3C720.826 190.7 715.526 200.3 703.326 206.9C697.126 210.2 696.826 210.3 685.026 210.3C674.126 210.3 672.526 210.1 667.526 207.7C664.526 206.3 660.326 203.3 658.126 201.2C656.026 199 653.026 194.8 651.626 191.8C649.326 186.9 649.026 185.1 649.026 175.3C649.026 165.5 649.326 163.7 651.626 158.8C654.426 152.9 660.126 146.6 665.026 144C671.426 140.7 676.026 139.8 686.526 140.1C696.326 140.3 697.426 140.6 703.326 143.8ZM519.526 175.3V234.8H546.526V191.8H603.526V167.8H546.526V139.8H606.526V115.8H519.526V175.3ZM123.826 197C122.526 197.6 121.526 198.7 121.526 199.5C121.526 200.2 121.126 200.8 120.626 200.8C119.226 200.8 118.226 206.4 119.026 209.8C119.426 211.5 120.126 212.6 120.626 212.2C121.126 211.9 121.526 212.3 121.526 213.2C121.526 215.1 127.826 217.2 130.726 216.3C133.426 215.4 137.526 211.9 137.526 210.4C137.526 209.8 136.826 210.4 135.926 211.6C135.126 212.8 133.926 213.6 133.426 213.3C132.926 212.9 132.526 213.3 132.526 214C132.526 215 132.226 214.9 131.626 213.8C130.426 212 131.326 210.5 133.026 211.2C133.726 211.4 134.626 211.1 134.926 210.3C135.226 209.3 134.626 209 132.826 209.1C131.426 209.2 130.026 208.8 129.826 208.1C129.526 207.4 130.126 207 131.326 207.3C132.826 207.6 133.226 207.2 132.826 205.7C132.526 204.7 131.926 203.8 131.426 203.8C130.926 203.8 131.126 202.7 131.726 201.3C133.026 198.5 134.326 198.1 135.126 200.3C135.526 201.1 136.226 201.8 136.926 201.8C137.526 201.8 136.526 200.4 134.726 198.8C131.326 195.6 127.826 195.1 123.826 197ZM130.226 201C128.426 203.5 128.326 204 129.526 204.8C130.826 205.7 130.226 206.2 128.326 205.9C127.526 205.8 127.826 207.9 128.926 209.6C129.426 210.5 129.126 211.6 128.026 212.6C127.026 213.6 126.526 213.8 126.926 213.1C127.226 212.5 126.926 211.7 126.326 211.5C125.626 211.2 125.926 210.9 127.026 210.9C128.626 210.8 128.726 210.6 127.626 209.9C125.626 208.6 123.526 209.6 124.226 211.5C124.526 212.3 123.726 212 122.326 210.6C120.026 208.5 119.626 206.9 120.426 202.5C120.426 202.1 121.026 201.8 121.626 201.8C122.126 201.8 122.326 202.3 121.926 203C121.526 203.7 121.026 205.3 120.926 206.6C120.726 208.5 120.926 208.7 122.026 207.8C123.026 207 123.526 207 124.026 207.9C124.626 208.7 125.026 208.7 125.526 207.7C126.026 207 125.726 205.9 124.926 205.1C124.126 204.3 123.526 203.2 123.526 202.7C123.526 202.1 124.226 202.4 125.126 203.2C127.226 205.4 127.826 205.2 126.526 202.8C125.626 201.1 125.726 200.9 127.226 201.5C128.826 202.1 128.826 202 127.626 200.5C126.626 199.2 125.926 199 124.926 199.9C124.026 200.6 123.526 200.7 123.526 200C123.526 198.7 124.926 198.2 129.126 198.1L132.426 198L130.226 201Z" fill="#00BFBF"/>
<path d="M128.026 199.8C128.326 200.3 128.826 200.8 129.126 200.8C129.326 200.8 129.526 200.3 129.526 199.8C129.526 199.2 129.026 198.8 128.426 198.8C127.926 198.8 127.726 199.2 128.026 199.8ZM132.526 202.2C132.526 202.9 133.626 203.8 135.026 204.1C137.526 204.5 137.526 204.5 135.926 202.7C133.926 200.5 132.526 200.3 132.526 202.2ZM135.026 206.8C135.326 207.3 135.826 207.8 136.126 207.8C136.326 207.8 136.526 207.3 136.526 206.8C136.526 206.2 136.026 205.8 135.426 205.8C134.926 205.8 134.726 206.2 135.026 206.8ZM121.526 223.4C121.526 224.2 121.126 224.6 120.526 224.3C119.926 224 119.826 224.4 120.126 225.2C120.426 226.1 120.226 226.8 119.626 226.8C119.026 226.8 118.526 227.8 118.626 229C118.626 231.2 118.726 231.2 119.526 229.3C120.326 227.5 120.426 227.5 120.426 229.1C120.526 230.1 120.926 230.7 121.426 230.4C121.826 230.1 122.226 231.1 122.126 232.6C122.026 234.9 122.526 235.4 124.826 235.6C128.026 236 130.526 234.3 130.526 231.9C130.526 230.5 130.326 230.5 129.426 231.8C128.526 233 128.426 232.9 129.026 231.3C131.326 224.6 131.426 223.8 129.526 222.8C126.526 221.2 121.526 221.5 121.526 223.4ZM129.026 224.8C128.726 225.3 127.926 225.8 127.426 225.8C126.826 225.8 126.726 225.3 127.026 224.8C127.326 224.2 128.126 223.8 128.626 223.8C129.226 223.8 129.326 224.2 129.026 224.8ZM125.526 229.8C124.626 230.4 124.526 230.8 125.226 230.8C125.826 230.8 126.326 231.7 126.226 232.7C126.226 233.7 125.626 234.4 125.026 234.1C124.326 233.9 124.026 232.7 124.126 231.5C124.426 228.6 124.326 228.8 125.826 228.8C126.626 228.8 126.526 229.2 125.526 229.8ZM131.626 228.4C131.626 229.5 131.926 229.8 132.226 229C132.526 228.3 132.426 227.4 132.126 227.1C131.826 226.7 131.526 227.3 131.626 228.4Z" fill="#00BFBF"/>
<path d="M194.426 7.5C194.326 8 194.226 8.99999 194.126 9.79999C194.126 10.6 193.526 11.2 193.026 11.1C192.426 11 191.826 11.9 191.826 13C191.626 15.1 191.626 15.1 193.226 12.9C194.126 11.5 195.326 10.9 196.326 11.3C197.726 11.8 197.726 11.6 196.226 10C195.326 9 194.826 7.8 195.226 7.5C195.526 7.1 195.526 6.79999 195.226 6.79999C194.826 6.79999 194.426 7.1 194.426 7.5ZM202.826 7.5C202.126 7.8 201.526 8.4 201.526 9C201.526 9.6 202.226 9.79999 203.026 9.39999C205.626 8.49999 204.626 10.8 202.026 12C200.626 12.6 199.526 13.5 199.526 14C199.526 15.4 200.826 14.9 203.326 12.5C205.626 10.4 205.726 10.4 207.026 12.1C207.726 13.1 208.626 13.5 208.926 13C209.226 12.4 208.826 11.7 208.026 11.4C207.226 11.1 206.626 10.5 206.726 10.1C206.926 9.69998 206.626 9.19998 206.126 9.09998C205.626 8.99998 204.926 8.5 204.626 8C204.326 7.5 203.426 7.3 202.826 7.5ZM198.526 9.79999C198.526 10.3 199.026 10.8 199.526 10.8C200.126 10.8 200.526 10.3 200.526 9.79999C200.526 9.19999 200.126 8.79999 199.526 8.79999C199.026 8.79999 198.526 9.19999 198.526 9.79999ZM211.326 14C212.326 15.2 212.326 15.7 211.426 16C210.726 16.2 210.426 17.1 210.726 17.8C211.026 18.9 211.426 18.8 212.326 17.2C213.226 15.4 213.126 14.8 211.726 13.7C210.226 12.4 210.126 12.5 211.326 14ZM195.826 15.8C196.026 16.6 195.626 18 194.826 19C193.726 20.2 193.726 20.8 194.626 21.4C195.426 21.8 195.626 21.7 195.126 21C194.726 20.3 194.826 19.8 195.326 19.8C196.826 19.8 197.426 17.3 196.326 15.7C195.526 14.5 195.426 14.5 195.826 15.8ZM199.126 19.1C199.326 20.7 199.126 21.7 198.526 21.3C197.926 21 197.526 21.1 197.526 21.6C197.526 22.8 200.426 24 201.526 23.3C201.926 23.1 202.526 21.9 202.826 20.8C203.126 19.7 202.926 19 202.526 19.3C202.026 19.6 201.326 19.3 200.926 18.7C200.626 18.1 200.926 17.2 201.626 16.7C202.626 16.1 202.426 15.9 200.926 16C199.226 16.2 198.926 16.8 199.126 19.1Z" fill="#00BFBF" fill-opacity="0.9"/>
<path d="M204.226 16.4C203.926 16.8 204.026 17.8 204.526 18.8C205.026 19.8 205.225 20.8 204.825 21.1C204.525 21.5 204.826 22.4 205.526 23.3C206.526 24.5 206.526 24.8 205.126 24.8C202.826 24.8 203.125 26.2 206.425 29.7C207.925 31.3 209.026 33 208.726 33.3C208.426 33.6 208.125 34.9 207.925 36.2C207.725 37.8 208.225 38.5 209.325 38.5C212.525 38.5 213.526 38.8 213.526 39.7C213.526 40.2 212.025 40.2 210.325 39.9C207.525 39.3 207.026 38.8 207.026 36.3C207.026 34.6 206.626 32.7 206.226 32C205.226 30.6 202.126 30.3 203.026 31.8C203.426 32.4 204.026 32.6 204.526 32.3C205.026 32 205.626 32.2 206.026 32.8C206.326 33.3 206.126 33.8 205.526 33.8C204.926 33.8 204.726 34.3 205.126 35C205.626 35.7 206.026 37.1 206.026 38.1C206.226 40.4 208.425 42 210.825 41.4C211.825 41.2 212.526 41.6 212.526 42.3C212.526 43.2 211.626 43.5 210.026 43.2C208.026 42.9 207.526 43.2 207.526 44.7C207.526 45.8 208.026 47 208.526 47.3C209.126 47.6 209.526 47.2 209.526 46.4C209.526 45.5 210.026 44.8 210.626 44.8C211.126 44.8 211.325 45.4 210.925 46C210.425 46.9 210.725 46.9 211.825 45.9C212.725 45.2 213.526 43.8 213.526 42.8C213.526 41.5 214.126 41.2 216.026 41.6C217.526 41.8 218.526 41.6 218.526 40.8C218.526 40.1 217.726 39.9 216.526 40.3C214.226 41 213.925 39.8 215.825 37.9C216.825 36.9 216.626 36.8 215.026 37.4C213.926 37.8 213.326 37.8 213.726 37.3C214.126 36.9 214.025 35.7 213.425 34.6C212.625 33.1 212.125 32.9 210.925 33.9C210.125 34.5 209.526 34.6 209.526 34C209.526 32.1 212.125 30.8 213.325 32C214.225 32.9 214.226 32.4 213.626 30C212.526 26.2 213.626 25.1 216.026 27.8C217.026 28.9 218.225 29.5 218.825 29.1C219.425 28.8 219.526 29 219.126 29.7C218.726 30.3 217.925 30.6 217.425 30.3C215.325 29 216.725 31.7 218.925 33.1C221.225 34.6 221.225 34.6 220.925 31.5C220.725 29.8 220.126 28.2 219.626 27.8C218.526 27.2 216.125 21.7 216.325 20.5C216.425 20.1 216.126 19.8 215.526 19.8C214.226 19.8 214.226 20.4 216.026 23.8C216.926 25.5 217.126 26.8 216.626 26.8C216.126 26.8 215.526 26.2 215.226 25.5C214.926 24.6 214.526 24.6 213.226 25.7C212.226 26.4 211.526 26.6 211.526 26C211.526 25.4 210.426 25.1 209.026 25.2C207.726 25.4 206.826 25.1 207.126 24.6C207.426 24.1 207.125 23 206.325 22.1C205.425 20.9 205.425 20.6 206.325 21.2C206.925 21.6 207.526 21.5 207.526 20.9C207.526 20.4 207.026 19.6 206.526 19.3C205.926 18.9 205.826 18.2 206.126 17.6C206.626 16.9 207.225 17.4 207.825 18.9C208.425 20.4 208.926 20.8 209.226 20C210.126 17.5 206.026 14.6 204.226 16.4ZM208.026 27.9C207.426 29.7 209.726 30 211.226 28.3C211.626 27.9 211.425 27.8 210.825 28.2C210.125 28.6 209.526 28.4 209.526 27.9C209.526 26.5 211.226 26.5 212.026 27.8C212.926 29.3 210.626 31.8 209.026 31.2C208.226 30.9 206.926 29.6 206.126 28.3C204.626 26.1 204.726 25.9 206.526 26.1C207.926 26.2 208.326 26.7 208.026 27.9ZM211.726 36.9C209.426 37.8 209.026 37.2 210.526 35.3C211.626 34 212.026 34 212.626 35C213.126 35.8 212.826 36.5 211.726 36.9Z" fill="#00BFBF" fill-opacity="0.9"/>
<path d="M209.126 21.8C207.626 22.3 207.526 22.7 208.426 23.2C209.126 23.7 210.226 23.5 210.826 22.9C212.226 21.5 211.426 20.9 209.126 21.8ZM201.026 25.9C200.626 26.5 200.526 27.1 200.826 27.4C201.026 27.7 201.526 27.2 201.826 26.3C202.526 24.6 201.926 24.3 201.026 25.9ZM217.926 37.3C218.026 37.8 218.926 38.2 219.826 38C221.926 37.6 223.026 39.7 221.126 40.4C220.226 40.7 219.526 41.6 219.526 42.4C219.526 43.1 218.926 43.5 218.226 43.2C217.326 42.9 216.926 43.4 217.026 44.7C217.226 47.2 218.526 48.8 218.526 46.5C218.526 45.5 219.026 44.8 219.526 44.8C220.126 44.8 220.526 44.2 220.526 43.4C220.526 42.7 221.226 41.5 222.026 40.8C223.126 39.9 223.226 39.2 222.526 38.3C222.026 37.7 221.826 36.9 222.126 36.6C222.426 36.3 221.526 36.1 220.126 36.2C218.726 36.2 217.726 36.7 217.926 37.3ZM220.426 47.5C219.626 48.4 219.526 48.9 220.226 48.5C220.826 48.1 221.526 48.3 221.726 49C222.026 49.9 222.326 49.9 222.926 49C223.326 48.3 223.126 47.8 222.526 47.8C221.926 47.8 221.726 47.3 222.026 46.8C223.026 45.2 221.926 45.7 220.426 47.5ZM208.326 49.5C208.926 49.8 209.326 50.4 209.026 50.9C208.626 51.4 209.126 51.5 209.926 51.2C212.226 50.3 211.826 49.2 209.326 49.1C208.026 49.1 207.626 49.2 208.326 49.5ZM213.026 49.9C212.626 50.5 212.626 51.2 212.926 51.5C213.226 51.9 213.526 51.6 213.526 50.8C213.526 49.8 213.926 49.8 215.326 50.9C216.826 52.2 216.926 52.1 215.626 50.5C214.026 48.5 213.826 48.5 213.026 49.9ZM218.026 50.8C219.026 51.9 220.026 52.6 220.326 52.4C220.826 51.8 218.026 48.8 216.926 48.8C216.526 48.8 217.026 49.7 218.026 50.8ZM680.326 115.5C681.026 115.8 681.926 115.7 682.226 115.4C682.626 115.1 682.026 114.8 680.926 114.9C679.826 114.9 679.526 115.2 680.326 115.5ZM687.326 115.5C688.026 115.8 688.926 115.7 689.226 115.4C689.626 115.1 689.026 114.8 687.926 114.9C686.826 114.9 686.526 115.2 687.326 115.5ZM124.826 198.5C124.126 198.8 123.526 199.4 123.526 200C123.526 200.7 124.026 200.6 124.926 199.9C125.926 199 126.626 199.2 127.626 200.5C128.826 202 128.826 202.1 127.226 201.5C125.726 200.9 125.626 201.1 126.526 202.8C127.826 205.2 127.226 205.4 125.126 203.2C124.226 202.4 123.526 202.1 123.526 202.7C123.526 203.2 124.126 204.3 124.926 205.1C125.726 205.9 126.026 207 125.526 207.7C125.026 208.7 124.626 208.7 124.026 207.9C123.526 207 123.026 207 122.026 207.8C120.926 208.7 120.726 208.5 120.926 206.6C121.026 205.3 121.526 203.7 121.926 203C122.326 202.3 122.126 201.8 121.626 201.8C121.026 201.8 120.526 202.4 120.526 203C120.526 203.9 120.126 203.8 119.426 202.8C118.526 201.6 118.426 201.7 119.026 203.3C119.426 204.4 119.826 206 119.926 206.8C119.926 207.6 121.126 209.4 122.426 210.7C123.926 212.2 124.626 212.5 124.226 211.6C123.526 209.7 125.626 208.6 127.626 209.9C128.726 210.6 128.626 210.8 127.026 210.9C125.926 210.9 125.626 211.2 126.326 211.5C126.926 211.7 127.226 212.5 126.926 213.1C126.526 213.8 127.026 213.6 128.026 212.6C129.126 211.6 129.426 210.5 128.926 209.6C127.226 207 127.626 205.2 129.326 207.4C130.426 208.8 131.826 209.4 133.226 209.2C134.826 208.9 135.326 209.2 134.926 210.2C134.626 211 133.726 211.4 133.026 211.2C131.326 210.5 130.426 212 131.626 213.8C132.226 214.9 132.526 215 132.526 214C132.526 213.3 132.926 212.9 133.326 213.2C133.826 213.5 135.226 212.6 136.326 211.3C138.626 208.6 139.426 201.8 137.426 201.8C136.726 201.8 135.726 201 135.026 200.1C133.826 198.5 127.626 197.5 124.826 198.5ZM129.526 199.9C129.526 200.7 130.026 200.7 131.026 199.8C132.726 198.3 132.926 199.1 131.526 201.9C130.926 203 130.826 203.8 131.326 203.8C131.926 203.8 132.526 204.7 132.826 205.7C133.126 207 132.826 207.5 131.626 207.3C130.726 207.2 130.126 206.5 130.326 205.9C130.426 205.3 130.026 204.8 129.426 204.8C128.826 204.8 128.626 204.1 128.926 203.2C129.326 202.3 129.026 200.9 128.426 200.2C127.626 199.2 127.626 198.8 128.426 198.8C129.026 198.8 129.526 199.3 129.526 199.9ZM135.926 202.7C137.526 204.5 137.526 204.5 135.026 204.1C133.626 203.8 132.526 202.9 132.526 202.2C132.526 200.3 133.926 200.5 135.926 202.7ZM136.526 206.8C136.526 207.3 136.326 207.8 136.126 207.8C135.826 207.8 135.326 207.3 135.026 206.8C134.726 206.2 134.926 205.8 135.426 205.8C136.026 205.8 136.526 206.2 136.526 206.8ZM123.026 214.8C122.726 215.4 123.126 215.5 123.926 215.2C125.726 214.5 126.026 213.8 124.626 213.8C124.026 213.8 123.326 214.2 123.026 214.8ZM119.826 224.4C118.326 226 118.226 226.8 119.426 226.8C120.226 226.8 121.826 223.8 121.326 223.3C121.126 223.1 120.426 223.6 119.826 224.4ZM127.026 224.8C126.726 225.3 126.826 225.8 127.426 225.8C127.926 225.8 128.726 225.3 129.026 224.8C129.326 224.2 129.226 223.8 128.626 223.8C128.126 223.8 127.326 224.2 127.026 224.8ZM130.326 227C130.026 228.3 129.426 230.2 129.026 231.3C128.426 233 128.526 233.1 129.526 231.8C130.526 230.6 130.626 230.7 130.126 232.7C129.826 234.4 129.926 234.8 130.726 234C131.726 233 132.126 226 131.126 225.1C130.926 224.9 130.526 225.7 130.326 227ZM749.926 228L748.026 230.3L750.326 228.4C752.426 226.6 753.026 225.8 752.226 225.8C752.026 225.8 751.026 226.8 749.926 228ZM119.626 228.5C119.626 229.1 119.226 230.4 118.826 231.4C118.426 232.6 118.526 232.9 119.326 232.4C120.026 232 120.526 232.3 120.526 233.2C120.526 234 120.926 234.9 121.326 235.2C121.826 235.5 122.126 234.4 122.126 232.8C122.126 231.2 121.826 230.1 121.426 230.4C121.026 230.6 120.426 230 120.226 229.1C119.926 228.1 119.726 227.8 119.626 228.5ZM716.625 228C716.925 228.2 720.926 231.9 725.526 236.3L734.026 244.3L726.026 236C721.626 231.5 717.625 227.8 717.125 227.8C716.625 227.8 716.425 227.9 716.625 228ZM124.426 229C123.826 231 124.126 233.8 125.026 234.1C125.626 234.4 126.226 233.7 126.226 232.7C126.326 231.7 125.826 230.8 125.226 230.8C124.526 230.8 124.626 230.4 125.526 229.8C126.526 229.2 126.626 228.8 125.826 228.8C125.126 228.8 124.526 228.9 124.426 229ZM680.326 235.5C681.026 235.8 681.926 235.7 682.226 235.4C682.626 235.1 682.026 234.8 680.926 234.9C679.826 234.9 679.526 235.2 680.326 235.5ZM687.326 235.5C688.026 235.8 688.926 235.7 689.226 235.4C689.626 235.1 689.026 234.8 687.926 234.9C686.826 234.9 686.526 235.2 687.326 235.5Z" fill="#00BFBF" fill-opacity="0.9"/>
<path d="M606.926 127.8C606.926 134.7 607.026 137.5 607.226 134C607.426 130.6 607.426 125 607.226 121.5C607.026 118.1 606.926 120.9 606.926 127.8ZM720.625 175.4C720.625 176.5 720.926 176.8 721.226 176C721.526 175.3 721.425 174.4 721.125 174.1C720.825 173.7 720.525 174.3 720.625 175.4Z" fill="#00BFBF" fill-opacity="0.7"/>
<path d="M740.526 213.1C740.526 213.3 742.026 214.7 743.826 216.4L747.026 219.3L744.125 216C741.325 213 740.526 212.3 740.526 213.1Z" fill="#00BFBF" fill-opacity="0.6"/>
<path d="M519.026 175.3C519.026 208.3 519.126 221.7 519.226 205C519.426 188.3 519.426 161.3 519.226 145C519.126 128.7 519.026 142.3 519.026 175.3ZM710.026 149.8C711.026 150.9 712.026 151.8 712.326 151.8C712.626 151.8 712.026 150.9 711.026 149.8C710.026 148.7 709.026 147.8 708.726 147.8C708.426 147.8 709.026 148.7 710.026 149.8ZM748.726 174.8C748.726 176.2 748.926 176.7 749.226 176C749.426 175.4 749.426 174.2 749.226 173.5C748.926 172.9 748.726 173.4 748.726 174.8ZM648.625 175.4C648.625 176.5 648.926 176.8 649.226 176C649.526 175.3 649.425 174.4 649.125 174.1C648.825 173.7 648.525 174.3 648.625 175.4ZM709.926 201L708.026 203.3L710.326 201.4C712.426 199.6 713.026 198.8 712.226 198.8C712.026 198.8 711.026 199.8 709.926 201ZM743.526 235.5L734.026 245.3L743.826 235.8C752.826 227 754.026 225.8 753.226 225.8C753.126 225.8 748.726 230.2 743.526 235.5Z" fill="#00BFBF" fill-opacity="0.1"/>
<path d="M730.526 242.2C730.526 242.4 731.326 243.2 732.326 243.9C733.826 245.2 733.925 245.1 732.625 243.5C731.325 241.9 730.526 241.4 730.526 242.2Z" fill="#00BFBF" fill-opacity="0.2"/>
<path d="M215.726 73.8C215.726 75.2 215.926 75.7 216.226 75C216.426 74.4 216.426 73.2 216.226 72.5C215.926 71.9 215.726 72.4 215.726 73.8Z" fill="#8040BF" fill-opacity="0.8"/>
<path d="M203.826 66C202.726 66.5 200.926 68.5 199.926 70.3C198.426 73.1 198.326 74.1 199.326 76.2C199.926 77.6 201.026 78.8 201.726 78.7C202.726 78.7 202.726 78.5 201.726 78.1C201.126 77.9 200.726 77.2 201.126 76.7C201.426 76.2 201.126 75.8 200.626 75.8C199.026 75.8 199.326 72.6 201.126 70C202.026 68.7 203.126 68.1 203.826 68.5C204.426 68.9 205.826 69.3 206.726 69.3C208.126 69.4 208.226 69.2 207.426 68.1C206.526 67.1 206.626 66.8 207.926 66.8C209.426 66.8 209.926 67.9 209.626 70.5C209.526 71.1 209.926 71.9 210.526 72.3C211.026 72.6 211.526 73.4 211.526 74C211.526 74.6 210.326 74.1 208.826 72.7L206.026 70.3L208.426 73.1C210.026 74.9 211.226 75.5 211.826 74.9C212.526 74.2 212.426 73.3 211.526 72.3C210.526 71.1 210.526 70.5 211.626 69.2C212.726 67.8 212.626 67.4 211.026 66.2C208.826 64.6 206.926 64.5 203.826 66ZM205.526 67.8C205.526 68.3 205.326 68.8 205.126 68.8C204.826 68.8 204.326 68.3 204.026 67.8C203.726 67.2 203.926 66.8 204.426 66.8C205.026 66.8 205.526 67.2 205.526 67.8ZM213.526 68.7C213.526 69.3 213.926 70 214.526 70.3C215.126 70.6 215.226 70.2 214.926 69.4C214.226 67.6 213.526 67.3 213.526 68.7Z" fill="#8040BF"/>
<path d="M201.926 72C201.526 72.7 201.626 72.8 202.426 72.4C203.026 72 204.426 72.2 205.326 73C206.826 74.2 206.926 74.1 205.626 72.5C204.026 70.5 202.926 70.3 201.926 72ZM205.126 76C205.426 76.5 206.126 76.6 206.626 76.3C207.926 75.4 207.726 75.1 206.026 75.1C205.226 75.1 204.826 75.5 205.126 76ZM214.026 77.9C213.626 78.5 213.526 79.1 213.826 79.4C214.026 79.7 214.526 79.2 214.826 78.3C215.526 76.6 214.926 76.3 214.026 77.9ZM204.226 81.5C207.826 83.1 208.826 83.1 210.826 81.5C212.326 80.5 211.626 80.3 206.926 80.3C201.726 80.3 201.526 80.4 204.226 81.5ZM117.926 244C116.926 245.2 116.526 245.8 117.226 245.5C117.826 245.1 118.626 245.4 118.826 246C119.126 246.8 119.426 246.6 119.426 245.5C119.526 244.5 119.926 244 120.526 244.3C121.126 244.6 121.226 244.2 120.926 243.4C120.126 241.4 120.226 241.4 117.926 244ZM122.326 242.5C122.926 242.7 123.226 243.5 122.826 244.1C122.526 244.8 122.526 245 123.026 244.6C123.426 244.2 124.426 244.3 125.226 244.9C126.126 245.7 126.526 245.7 126.526 245C126.526 243.8 123.326 241.7 121.826 241.9C121.426 241.9 121.626 242.2 122.326 242.5ZM121.026 246.9C120.526 247.6 120.626 248.3 121.326 248.6C122.026 248.8 122.526 249.6 122.526 250.4C122.526 251.6 122.926 251.6 124.526 250.8C125.626 250.2 126.526 249.2 126.526 248.5C126.526 247.7 126.126 247.8 125.526 248.8C124.526 250.4 124.326 250.3 122.826 247.4C122.026 246 121.626 245.8 121.026 246.9ZM118.226 250C119.126 251 120.326 251.8 120.926 251.8C121.526 251.8 121.226 251.1 120.326 250.4C119.326 249.7 118.726 248.9 119.026 248.6C119.326 248.4 118.826 248.1 118.026 248.1C116.726 248.1 116.726 248.4 118.226 250Z" fill="#8040BF"/>
<path d="M202.826 67.1C202.926 67.8 202.526 68.2 201.926 68.1C201.326 68 200.826 68.4 200.726 69.1C200.626 69.8 200.326 71.5 199.926 73C199.526 74.9 199.726 75.8 200.426 75.8C201.126 75.8 201.326 76.2 201.026 76.8C200.726 77.3 201.026 77.8 201.726 77.8C202.626 77.8 202.626 78.1 201.526 78.8C200.226 79.6 200.326 79.8 201.826 79.8C202.826 79.8 203.426 80.1 203.226 80.5C202.926 81 205.026 81.2 207.826 81.2C211.726 81.1 213.126 80.6 213.326 79.4C213.526 78.5 214.026 78 214.426 78.3C214.926 78.5 215.226 76.5 215.226 73.8C215.226 71.1 214.926 69.1 214.526 69.3C214.126 69.6 213.526 68.8 213.226 67.7C212.626 65.6 210.526 65.9 210.526 68.1C210.526 68.8 210.926 68.7 211.526 67.8C212.026 67 212.526 66.8 212.526 67.3C212.526 67.9 212.026 68.9 211.326 69.6C210.526 70.4 210.526 71.1 211.526 72.3C214.026 75.3 211.126 76 208.426 73.1L206.026 70.3L208.826 72.7C210.326 74.1 211.526 74.6 211.526 74C211.526 73.4 211.026 72.6 210.526 72.3C209.926 71.9 209.526 71.1 209.626 70.5C209.926 67.9 209.426 66.8 207.926 66.8C206.626 66.8 206.526 67.1 207.426 68.1C208.226 69.2 208.026 69.4 206.526 69.3C205.426 69.2 204.226 68.8 203.826 68.3C203.326 67.9 203.626 67.8 204.326 68.2C204.926 68.6 205.526 68.5 205.526 68C205.526 67.4 204.826 66.8 204.026 66.4C203.226 66.1 202.626 66.4 202.826 67.1ZM205.626 72.5C206.926 74.1 206.826 74.2 205.326 73C204.426 72.2 203.026 72 202.426 72.4C201.626 72.8 201.526 72.7 201.926 72C202.926 70.3 204.026 70.5 205.626 72.5ZM207.526 75.4C207.526 76.2 205.626 76.7 205.126 76C204.826 75.5 205.226 75.1 206.026 75.1C206.826 75.1 207.526 75.3 207.526 75.4ZM122.826 242.5C122.126 242.7 121.526 243.6 121.526 244.3C121.526 245 120.826 245.8 120.026 246.2C119.226 246.5 118.526 246.2 118.526 245.6C118.526 244.7 118.226 244.7 117.426 245.5C116.026 246.9 117.226 249.1 118.826 248.1C119.726 247.6 119.726 247.8 118.826 248.9C117.926 250 118.126 250.3 120.126 250.4C122.626 250.6 123.426 249.3 121.326 248.6C120.526 248.3 120.826 247.1 122.426 245C123.626 243.2 124.526 241.8 124.326 241.9C124.126 241.9 123.426 242.2 122.826 242.5Z" fill="#8040BF" fill-opacity="0.9"/>
<path d="M123.126 245.7C122.426 246.8 123.425 249.8 124.525 249.8C125.625 249.8 126.625 246.8 125.925 245.7C125.625 245.2 125.025 244.8 124.525 244.8C124.025 244.8 123.426 245.2 123.126 245.7Z" fill="#8040BF" fill-opacity="0.9"/>
<path d="M396.026 175.3C396.026 208.3 396.126 221.7 396.226 205C396.426 188.3 396.426 161.3 396.226 145C396.126 128.7 396.026 142.3 396.026 175.3ZM373.026 140L367.026 146.3L373.325 140.3C379.125 134.8 380.026 133.8 379.226 133.8C379.126 133.8 376.326 136.6 373.026 140ZM298.626 175.4C298.626 176.5 298.926 176.8 299.226 176C299.526 175.3 299.426 174.4 299.126 174.1C298.826 173.7 298.526 174.3 298.626 175.4Z" fill="white" fill-opacity="0.1"/>
<path d="M364.426 148.5L362.026 151.3L364.826 148.9C367.326 146.6 368.026 145.8 367.226 145.8C367.026 145.8 365.826 147 364.426 148.5Z" fill="white" fill-opacity="0.2"/>
<path d="M484.526 126.2C484.526 126.4 485.326 127.2 486.326 127.9C487.826 129.2 487.925 129.1 486.625 127.5C485.325 125.9 484.526 125.4 484.526 126.2Z" fill="white" fill-opacity="0.4"/>
<path d="M376.526 131.2C376.526 131.4 377.326 132.2 378.326 132.9C379.826 134.2 379.926 134.1 378.626 132.5C377.326 130.9 376.526 130.4 376.526 131.2ZM496.625 158.4C496.625 159.5 496.926 159.8 497.226 159C497.526 158.3 497.425 157.4 497.125 157.1C496.825 156.7 496.525 157.3 496.625 158.4Z" fill="white" fill-opacity="0.5"/>
<path d="M423.926 156.3C423.926 165.6 424.126 169.6 424.226 165.1C424.426 160.6 424.426 152.9 424.226 148.1C424.126 143.3 423.926 146.9 423.926 156.3ZM428.326 195.5C430.626 195.7 434.226 195.7 436.326 195.5C438.326 195.3 436.426 195.1 432.026 195.1C427.626 195.1 425.926 195.3 428.326 195.5Z" fill="white" fill-opacity="0.6"/>
<path d="M270.726 172.8C270.726 174.2 270.926 174.7 271.226 174C271.426 173.4 271.426 172.2 271.226 171.5C270.926 170.9 270.726 171.4 270.726 172.8ZM270.726 177.8C270.726 179.2 270.926 179.7 271.226 179C271.426 178.4 271.426 177.2 271.226 176.5C270.926 175.9 270.726 176.4 270.726 177.8ZM423.926 215.3C423.926 226.3 424.126 230.9 424.226 225.6C424.426 220.3 424.426 211.3 424.226 205.6C424.126 199.9 423.926 204.3 423.926 215.3ZM374.526 211.2C374.526 211.4 375.326 212.2 376.326 212.9C377.826 214.2 377.926 214.1 376.626 212.5C375.326 210.9 374.526 210.4 374.526 211.2Z" fill="white" fill-opacity="0.8"/>
<path d="M330.326 115.5C331.026 115.8 331.926 115.7 332.226 115.4C332.626 115.1 332.026 114.8 330.926 114.9C329.826 114.9 329.526 115.2 330.326 115.5ZM286.926 133L285.026 135.3L287.326 133.4C289.426 131.6 290.026 130.8 289.226 130.8C289.026 130.8 288.026 131.8 286.926 133ZM369.026 143L362.026 150.3L369.326 143.3C376.026 136.9 377.026 135.8 376.226 135.8C376.126 135.8 372.826 139.1 369.026 143ZM485.926 183L484.026 185.3L486.326 183.4C488.426 181.6 489.026 180.8 488.226 180.8C488.026 180.8 487.026 181.8 485.926 183ZM372.026 208.8C373.026 209.9 374.026 210.8 374.326 210.8C374.626 210.8 374.026 209.9 373.026 208.8C372.026 207.7 371.026 206.8 370.726 206.8C370.426 206.8 371.026 207.7 372.026 208.8ZM284.526 215.1C284.526 215.3 286.026 216.7 287.826 218.4L291.026 221.3L288.126 218C285.326 215 284.526 214.3 284.526 215.1ZM377.426 219.5C376.126 221.1 376.226 221.2 377.826 219.9C378.726 219.2 379.526 218.4 379.526 218.2C379.526 217.4 378.726 217.9 377.426 219.5ZM330.326 235.5C331.026 235.8 331.926 235.7 332.226 235.4C332.626 235.1 332.026 234.8 330.926 234.9C329.826 234.9 329.526 235.2 330.326 235.5Z" fill="white" fill-opacity="0.9"/>
<path d="M603.926 179.8C603.926 186.7 604.026 189.5 604.226 186C604.426 182.6 604.426 177 604.226 173.5C604.026 170.1 603.926 172.9 603.926 179.8ZM723.526 235.3C727.026 238.9 730.226 241.8 730.426 241.8C730.726 241.8 728.026 238.9 724.526 235.3C721.026 231.7 717.825 228.8 717.625 228.8C717.325 228.8 720.026 231.7 723.526 235.3Z" fill="#00BFBF" fill-opacity="0.3"/>
<path d="M748.526 221.3C749.826 222.7 751.126 223.8 751.326 223.8C751.626 223.8 750.826 222.7 749.526 221.3C748.226 219.9 746.926 218.8 746.726 218.8C746.426 218.8 747.226 219.9 748.526 221.3Z" fill="#00BFBF" fill-opacity="0.5"/>
<path d="M636.426 132.5C635.126 134.1 635.226 134.2 636.826 132.9C638.426 131.6 638.925 130.8 638.125 130.8C637.925 130.8 637.126 131.6 636.426 132.5ZM635.526 217.2C635.526 217.4 636.326 218.2 637.326 218.9C638.826 220.2 638.925 220.1 637.625 218.5C636.325 216.9 635.526 216.4 635.526 217.2Z" fill="#00BFBF" fill-opacity="0.4"/>
</svg>
